<svg xmlns="http://www.w3.org/2000/svg" width="64" height="64" viewBox="0 0 64 64" role="img" aria-label="typescript.news">
  <title>typescript.news</title>
  <rect x="1.5" y="1.5" width="61" height="61" rx="12" fill="#f54e00"/>
  <path transform="translate(10.471 50.984) scale(0.542)" d="M0.98-54.59L29.20-54.59L29.20-47.07L0.98-47.07L0.98-54.59M9.18-13.48L9.18-67.58L17.97-67.58L17.97-14.16Q17.97-10.50 19.46-8.81Q20.95-7.13 24.41-7.13Q25.24-7.13 26.54-7.32Q27.83-7.52 28.91-7.71L30.71-0.29Q29.35 0.20 27.61 0.44Q25.88 0.68 24.17 0.68Q17.09 0.68 13.13-3.05Q9.18-6.79 9.18-13.48M56.98 1.17Q51.37 1.17 47-0.46Q42.63-2.10 39.80-5.32Q36.96-8.54 35.99-13.23L44.34-15.23Q45.51-10.74 48.76-8.64Q52-6.54 56.89-6.54Q62.60-6.54 65.99-8.98Q69.39-11.43 69.39-14.79Q69.39-17.63 67.41-19.51Q65.43-21.39 61.38-22.31L52.30-24.46Q44.88-26.22 41.26-29.91Q37.65-33.59 37.65-39.36Q37.65-44.04 40.29-47.63Q42.92-51.22 47.49-53.25Q52.05-55.27 57.86-55.27Q63.48-55.27 67.41-53.59Q71.34-51.90 73.81-48.95Q76.27-46 77.49-42.14L69.53-40.09Q68.41-43.02 65.80-45.41Q63.19-47.80 57.91-47.80Q53.03-47.80 49.78-45.56Q46.54-43.31 46.54-39.89Q46.54-36.87 48.73-35.03Q50.93-33.20 55.71-32.08L63.97-30.13Q71.39-28.37 74.95-24.68Q78.52-21 78.52-15.38Q78.52-10.60 75.81-6.86Q73.10-3.12 68.24-0.98Q63.38 1.17 56.98 1.17" fill="#26251e"/>
</svg>
