<svg width="1200" height="630" viewBox="0 0 1200 630" fill="none" xmlns="http://www.w3.org/2000/svg">
  <rect width="1200" height="630" fill="#0B1020"/>
  <rect x="40" y="40" width="1120" height="550" rx="28" fill="url(#paint0_linear_1_2)"/>
  <rect x="82" y="86" width="210" height="54" rx="27" fill="#102449"/>
  <text x="126" y="121" fill="#7DD3FC" font-family="ui-sans-serif, system-ui, sans-serif" font-size="28" font-weight="700">typescript.news</text>
  <text x="82" y="252" fill="white" font-family="ui-sans-serif, system-ui, sans-serif" font-size="74" font-weight="800">TypeScript and web</text>
  <text x="82" y="336" fill="white" font-family="ui-sans-serif, system-ui, sans-serif" font-size="74" font-weight="800">platform news</text>
  <text x="82" y="414" fill="#B6C2D9" font-family="ui-sans-serif, system-ui, sans-serif" font-size="34" font-weight="500">News, analysis, and context for developers who ship code.</text>
  <rect x="82" y="478" width="238" height="62" rx="18" fill="#38BDF8"/>
  <text x="122" y="518" fill="#0B1020" font-family="ui-sans-serif, system-ui, sans-serif" font-size="30" font-weight="800">Read the latest</text>
  <path d="M949 152C1018.59 152 1075 208.412 1075 278C1075 347.588 1018.59 404 949 404C879.412 404 823 347.588 823 278C823 208.412 879.412 152 949 152Z" fill="#0F172A"/>
  <path d="M909 222H959V334H909V222Z" fill="#38BDF8"/>
  <path d="M970 222H1019V334H970V222Z" fill="#7DD3FC"/>
  <path d="M879 192H1029V219H879V192Z" fill="#E2E8F0"/>
  <defs>
    <linearGradient id="paint0_linear_1_2" x1="68" y1="58" x2="1120" y2="590" gradientUnits="userSpaceOnUse">
      <stop stop-color="#111B34"/>
      <stop offset="1" stop-color="#172554"/>
    </linearGradient>
  </defs>
</svg>
